<svg width="26" height="32" viewBox="0 0 26 32" fill="none" xmlns="http://www.w3.org/2000/svg">
<path d="M20.5924 17.1416C20.6136 19.6298 21.7071 21.2986 22.8018 22.3391C23.4994 23.0021 24.2008 23.4139 24.6338 23.6296C24.6306 23.6389 24.6275 23.6483 24.6242 23.6579C24.5432 23.8963 24.4211 24.2286 24.2531 24.624C23.9167 25.416 23.3988 26.4547 22.6616 27.4987L22.6615 27.4986L22.6549 27.5084C22.018 28.4616 21.3958 29.3562 20.6856 30.0199C19.9848 30.6749 19.2287 31.0761 18.3219 31.0909L18.3188 31.0909C17.4148 31.1117 16.8154 30.8569 16.1048 30.5549L16.0751 30.5423C15.3388 30.2293 14.5074 29.8851 13.2344 29.8851C11.957 29.8851 11.1137 30.2044 10.3661 30.5164C10.315 30.5377 10.2647 30.5588 10.2148 30.5797C9.5426 30.8619 8.96599 31.1039 8.13989 31.1384C7.31143 31.1689 6.53953 30.7553 5.78063 30.0432C5.02127 29.3307 4.33416 28.3757 3.67324 27.4318C2.39682 25.5649 1.25433 22.9217 0.768913 20.1688C0.282712 17.4114 0.464687 14.6006 1.76288 12.3525L1.76288 12.3525L1.76411 12.3503C3.01689 10.1537 5.29812 8.75152 7.71662 8.71236L7.71826 8.71233C8.62339 8.69445 9.51834 9.00141 10.3909 9.34618C10.5005 9.3895 10.6108 9.43383 10.721 9.4781C11.0358 9.60461 11.3494 9.73058 11.6413 9.8308C12.0353 9.96604 12.4425 10.074 12.8297 10.074C13.22 10.074 13.6581 9.94261 14.0843 9.78852C14.3184 9.70391 14.5861 9.59768 14.8605 9.48875C15.0754 9.40347 15.2945 9.31652 15.5049 9.23699C16.5216 8.85272 17.6082 8.53113 18.6847 8.64397L18.7018 8.64577L18.7191 8.64627C19.6087 8.67236 22.0357 8.98341 23.7388 11.1328C22.7839 11.8224 20.5609 13.7858 20.5924 17.1416ZM20.5924 17.1416C20.5924 17.1416 20.5924 17.1415 20.5924 17.1414L21.0519 17.1375L20.5924 17.1419C20.5924 17.1418 20.5924 17.1417 20.5924 17.1416Z" fill="#F7F9FA" stroke="#EAEAEA" stroke-width="0.919054"/>
<path d="M14.5598 3.36261L14.5607 3.36163C15.4829 2.27824 17.0225 1.42625 18.3317 1.21581C18.3655 2.7354 17.7334 4.22889 16.8236 5.36895C15.8717 6.4888 14.4252 7.33305 13.0121 7.38128C12.9697 5.90656 13.7108 4.35438 14.5598 3.36261Z" fill="#F7F9FA" stroke="#EAEAEA" stroke-width="0.919054"/>
</svg>
