<svg width="17" height="17" viewBox="0 0 17 17" fill="none" xmlns="http://www.w3.org/2000/svg">
<path d="M16.1328 8.26427C16.1328 6.80649 15.7773 5.46427 15.0661 4.2376C14.355 3.01094 13.3861 2.03316 12.1595 1.30427C10.9328 0.575381 9.59059 0.210938 8.13281 0.210938C6.67503 0.210938 5.33281 0.575381 4.10615 1.30427C2.87948 2.03316 1.91059 3.01094 1.19948 4.2376C0.488368 5.46427 0.132812 6.80649 0.132812 8.26427C0.132812 9.57983 0.426146 10.8065 1.01281 11.9443C1.59948 13.082 2.40837 14.0243 3.43948 14.7709C4.47059 15.5176 5.62615 15.9976 6.90615 16.2109V10.6109H4.82615V8.26427H6.90615V6.50427C6.90615 5.50871 7.17281 4.73538 7.70615 4.18427C8.23948 3.63316 8.96837 3.3576 9.89281 3.3576C10.2484 3.3576 10.6573 3.37538 11.1195 3.41094L11.7061 3.5176V5.49094H10.6928C10.2306 5.49094 9.89281 5.60649 9.67948 5.8376C9.46615 6.06872 9.35948 6.37983 9.35948 6.77094V8.26427H11.5995L11.2261 10.6109H9.35948V16.2109C10.6395 15.9976 11.795 15.5176 12.8261 14.7709C13.8573 14.0243 14.6661 13.082 15.2528 11.9443C15.8395 10.8065 16.1328 9.57983 16.1328 8.26427Z" fill="#333333"/>
</svg>
