<svg width="17" height="17" viewBox="0 0 17 17" fill="none" xmlns="http://www.w3.org/2000/svg">
<path d="M8.13281 0.210938C6.63948 0.210938 5.52837 0.228715 4.79948 0.264271C4.07059 0.299826 3.43948 0.424271 2.90615 0.637604C2.37281 0.850937 1.9017 1.16205 1.49281 1.57094C1.08392 1.97983 0.772812 2.45094 0.559479 2.98427C0.346146 3.5176 0.221701 4.14872 0.186146 4.8776C0.15059 5.60649 0.132812 6.7176 0.132812 8.21094C0.132812 9.70427 0.15059 10.8154 0.186146 11.5443C0.221701 12.2732 0.346146 12.9043 0.559479 13.4376C0.772812 13.9709 1.08392 14.442 1.49281 14.8509C1.9017 15.2598 2.37281 15.5709 2.90615 15.7843C3.43948 15.9976 4.07059 16.122 4.79948 16.1576C5.52837 16.1932 6.63948 16.2109 8.13281 16.2109C9.62615 16.2109 10.7373 16.1932 11.4661 16.1576C12.195 16.122 12.8261 15.9976 13.3595 15.7843C13.8928 15.5709 14.3639 15.2598 14.7728 14.8509C15.1817 14.442 15.4928 13.9709 15.7061 13.4376C15.9195 12.9043 16.0439 12.2732 16.0795 11.5443C16.115 10.8154 16.1328 9.70427 16.1328 8.21094C16.1328 6.7176 16.115 5.60649 16.0795 4.8776C16.0439 4.14872 15.9195 3.5176 15.7061 2.98427C15.4928 2.45094 15.1817 1.97983 14.7728 1.57094C14.3639 1.16205 13.8928 0.850937 13.3595 0.637604C12.8261 0.424271 12.195 0.299826 11.4661 0.264271C10.7373 0.228715 9.62615 0.210938 8.13281 0.210938ZM7.43948 1.65094H8.13281C9.62615 1.65094 10.7106 1.66871 11.3861 1.70427C11.955 1.73983 12.4261 1.82872 12.7995 1.97094C13.1728 2.11316 13.4928 2.3176 13.7595 2.58427C14.0261 2.85094 14.2306 3.17094 14.3728 3.54427C14.515 3.9176 14.6039 4.38871 14.6395 4.9576C14.675 5.63316 14.6928 6.7176 14.6928 8.21094C14.6928 9.70427 14.675 10.7887 14.6395 11.4643C14.6039 12.0332 14.515 12.5043 14.3728 12.8776C14.2306 13.2509 14.0261 13.5709 13.7595 13.8376C13.4928 14.1043 13.1728 14.3087 12.7995 14.4509C12.4261 14.5932 11.955 14.682 11.3861 14.7176C10.675 14.7532 9.59059 14.7709 8.13281 14.7709C6.67503 14.7709 5.59059 14.7532 4.87948 14.7176C4.31059 14.682 3.83948 14.5932 3.46615 14.4509C3.09281 14.3087 2.77281 14.1043 2.50615 13.8376C2.23948 13.5709 2.03503 13.2509 1.89281 12.8776C1.75059 12.5043 1.6617 12.0332 1.62615 11.4643C1.59059 10.7532 1.57281 9.65983 1.57281 8.18427C1.57281 6.70872 1.59059 5.63316 1.62615 4.9576C1.6617 4.38871 1.75059 3.9176 1.89281 3.54427C2.03503 3.17094 2.23948 2.85094 2.50615 2.58427C2.77281 2.3176 3.09281 2.11316 3.46615 1.97094C3.83948 1.82872 4.32837 1.73983 4.93281 1.70427C5.53726 1.66871 6.37281 1.65094 7.43948 1.65094ZM12.3995 2.98427C12.1506 2.98427 11.9284 3.07316 11.7328 3.25094C11.5373 3.42871 11.4395 3.65094 11.4395 3.9176C11.4395 4.18427 11.5373 4.41538 11.7328 4.61094C11.9284 4.80649 12.1595 4.90427 12.4261 4.90427C12.6928 4.90427 12.915 4.80649 13.0928 4.61094C13.2706 4.41538 13.3595 4.18427 13.3595 3.9176C13.3595 3.65094 13.2706 3.42871 13.0928 3.25094C12.915 3.07316 12.6839 2.98427 12.3995 2.98427ZM8.13281 4.10427C7.38615 4.10427 6.69281 4.28205 6.05281 4.6376C5.41281 4.99316 4.90615 5.49094 4.53281 6.13094C4.15948 6.77094 3.97281 7.46427 3.97281 8.21094C3.97281 8.9576 4.15948 9.65094 4.53281 10.2909C4.90615 10.9309 5.41281 11.4287 6.05281 11.7843C6.69281 12.1398 7.38615 12.3176 8.13281 12.3176C8.87948 12.3176 9.56392 12.1309 10.1861 11.7576C10.8084 11.3843 11.2973 10.8865 11.6528 10.2643C12.0084 9.64205 12.1861 8.9576 12.1861 8.21094C12.1861 7.46427 12.0084 6.77983 11.6528 6.1576C11.2973 5.53538 10.8084 5.0376 10.1861 4.66427C9.56392 4.29094 8.87948 4.10427 8.13281 4.10427ZM8.13281 5.54427C8.59503 5.54427 9.03948 5.65983 9.46615 5.89094C9.89281 6.12205 10.2217 6.45094 10.4528 6.8776C10.6839 7.30427 10.7995 7.74872 10.7995 8.21094C10.7995 8.67316 10.6839 9.1176 10.4528 9.54427C10.2217 9.97094 9.89281 10.2998 9.46615 10.5309C9.03948 10.762 8.59503 10.8776 8.13281 10.8776C7.38615 10.8776 6.75503 10.6198 6.23948 10.1043C5.72392 9.58872 5.46615 8.9576 5.46615 8.21094C5.46615 7.46427 5.72392 6.83316 6.23948 6.3176C6.75503 5.80205 7.38615 5.54427 8.13281 5.54427Z" fill="#333333"/>
</svg>
