<svg width="17" height="17" viewBox="0 0 17 17" fill="none" xmlns="http://www.w3.org/2000/svg">
<path d="M0.132812 1.33094C0.132812 1.04649 0.248368 0.788715 0.479479 0.557604C0.71059 0.326492 0.986146 0.210938 1.30615 0.210938H14.9595C15.2795 0.210938 15.555 0.326492 15.7861 0.557604C16.0173 0.788715 16.1328 1.04649 16.1328 1.33094V15.0909C16.1328 15.3754 16.0173 15.6332 15.7861 15.8643C15.555 16.0954 15.2795 16.2109 14.9595 16.2109H1.30615C0.986146 16.2109 0.71059 16.0954 0.479479 15.8643C0.248368 15.6332 0.132812 15.3754 0.132812 15.0909V1.33094ZM5.09281 13.5976V6.3976H2.69281V13.5976H5.09281ZM3.86615 5.38427C4.29281 5.38427 4.63059 5.26871 4.87948 5.0376C5.12837 4.80649 5.24392 4.51316 5.22615 4.1576C5.20837 3.80205 5.08392 3.49983 4.85281 3.25094C4.6217 3.00205 4.3017 2.8776 3.89281 2.8776C3.48392 2.8776 3.15503 3.00205 2.90615 3.25094C2.65726 3.49983 2.53281 3.80205 2.53281 4.1576C2.53281 4.51316 2.65726 4.80649 2.90615 5.0376C3.15503 5.26871 3.47503 5.38427 3.86615 5.38427ZM8.77281 13.5976V9.54427C8.77281 9.29538 8.80837 9.09983 8.87948 8.9576C8.95059 8.74427 9.09281 8.54872 9.30615 8.37094C9.51948 8.19316 9.78615 8.10427 10.1061 8.10427C10.5328 8.10427 10.8439 8.24649 11.0395 8.53094C11.235 8.81538 11.3328 9.22427 11.3328 9.7576V13.5976H13.7328V9.4376C13.7328 8.37094 13.475 7.56205 12.9595 7.01094C12.4439 6.45983 11.7773 6.18427 10.9595 6.18427C10.3906 6.18427 9.91059 6.32649 9.51948 6.61094C9.23503 6.78872 8.98615 7.05538 8.77281 7.41094V6.3976H6.37281C6.40837 6.68205 6.40837 7.96205 6.37281 10.2376V13.5976H8.77281Z" fill="#333333"/>
</svg>
